# xmcd CD database file
#
# Track frame offsets:
#	150
#	17569
#	33855
#	50295
#
# Disc length: 890 seconds
#
# Revision: 0
# Processed by: cddbd v1.4PL0 Copyright (c) Steve Scherf et al.
# Submitted via: CdAid 2001.05.15.01
#
DISCID=22037804
DTITLE=Heather Green               - CD Sampler
DYEAR=1900
DGENRE=
TTITLE0=All The Way
TTITLE1=Something To Cry About
TTITLE2=Who Knows
TTITLE3=Leaving Tomorrow Behind
EXTD=
EXTT0=
EXTT1=
EXTT2=
EXTT3=
PLAYORDER=
